<svg xmlns="http://www.w3.org/2000/svg" xmlns:svg="http://www.w3.org/2000/svg" version="1.0" id="svg858" viewBox="139.63 139.87 2282.18 1618.29">
  <defs id="defs834">
    <pattern id="WMFhbasepattern" patternUnits="userSpaceOnUse" width="6" height="6" x="0" y="0"/>
  </defs>
  <path style="fill:none;stroke:#000000;stroke-width:1.88976378;stroke-linecap:round;stroke-linejoin:round;stroke-miterlimit:4;stroke-dasharray:none;stroke-opacity:1" d="  M 147.1895,948.97457   L 2414.2543,948.97457  " id="path836"/>
  <path style="fill:none;stroke:#000000;stroke-width:0.078753076px;stroke-linecap:round;stroke-linejoin:round;stroke-miterlimit:4;stroke-dasharray:none;stroke-opacity:1;" d="  M 413.92617,948.97457   L 2113.0238,948.97457  " id="path838"/>
  <path style="fill:none;stroke:#000000;stroke-width:3.77952756;stroke-linecap:round;stroke-linejoin:round;stroke-miterlimit:4;stroke-dasharray:none;stroke-opacity:1" d="  M 2414.2543,1082.6973   L 2354.4807,1082.776   L 2294.6284,1083.0911   L 2234.8548,1083.5636   L 2175.0812,1084.1936   L 2115.3076,1084.9811   L 2055.534,1086.0049   L 1995.6817,1087.265   L 1935.9081,1088.6038   L 1876.1345,1090.1788   L 1816.361,1091.9902   L 1756.5874,1093.8802   L 1696.8925,1096.0066   L 1637.1189,1098.3692   L 1577.3454,1100.8105   L 1517.6505,1103.5669   L 1457.8769,1106.402   L 1398.1821,1109.4733   L 1338.4873,1112.7022   L 1278.7925,1116.0886   L 1219.0976,1119.7112   L 1159.4028,1123.4914   L 1099.7867,1127.5078   L 1040.0919,1131.6817   L 980.4758,1136.0131   L 920.85972,1140.5808   L 861.24364,1145.306   L 801.62756,1150.1887   L 742.09024,1155.2289   L 682.47416,1160.5053   L 622.93683,1166.018   L 563.39951,1171.6095   L 503.86218,1177.4372   L 444.40361,1183.5012   L 384.94504,1189.644   L 325.48646,1196.023   L 266.02789,1202.6382   L 206.64807,1209.3322   L 147.1895,1216.2625  " id="path840"/>
  <path style="fill:none;stroke:#000000;stroke-width:7.55905512;stroke-linecap:round;stroke-linejoin:round;stroke-miterlimit:4;stroke-dasharray:none;stroke-opacity:1" d="  M 2414.2543,1216.1838   L 2371.8852,1216.2625   L 2329.516,1216.5775   L 2287.1468,1217.05   L 2244.7777,1217.6801   L 2202.4085,1218.4676   L 2160.0394,1219.4914   L 2117.749,1220.6727   L 2075.3798,1222.0902   L 2033.0107,1223.6653   L 1990.7203,1225.3979   L 1948.3511,1227.2879   L 1906.0607,1229.4143   L 1863.7703,1231.6981   L 1821.4799,1234.2182   L 1779.1895,1236.8958   L 1736.8991,1239.7309   L 1694.6087,1242.8023   L 1652.397,1245.9524   L 1610.1854,1249.4176   L 1567.9737,1252.9614   L 1525.7621,1256.7416   L 1483.5505,1260.6792   L 1441.4176,1264.8532   L 1399.2847,1269.1846   L 1357.1518,1273.6735   L 1315.0189,1278.3199   L 1272.886,1283.2026   L 1230.8318,1288.2428   L 1188.7777,1293.5193   L 1146.8023,1298.8745   L 1104.8269,1304.5447   L 1062.8515,1310.2937   L 1020.8761,1316.2789   L 978.97949,1322.4217   L 937.08285,1328.7219   L 895.18622,1335.2584   L 853.36833,1341.9524   L 811.55045,1348.8039   L 769.73257,1355.8917   L 727.99344,1363.0582   L 686.33306,1370.5398   L 644.59393,1378.1001   L 602.93355,1385.8966   L 561.35193,1393.8507   L 519.7703,1401.9623   L 478.18868,1410.3101   L 436.68581,1418.8154   L 395.26169,1427.4783   L 353.83757,1436.3774   L 312.41345,1445.434   L 271.06809,1454.6481   L 229.72272,1464.0197   L 188.45611,1473.6276   L 147.1895,1483.3929  " id="path842"/>
  <path style="fill:none;stroke:#000000;stroke-width:15.11811024;stroke-linecap:round;stroke-linejoin:round;stroke-miterlimit:4;stroke-dasharray:none;stroke-opacity:1" d="  M 2414.2543,1349.8277   L 2379.2092,1349.9065   L 2344.1641,1350.2215   L 2309.1189,1350.694   L 2273.9951,1351.324   L 2238.95,1352.1903   L 2203.9048,1353.1354   L 2168.9385,1354.3954   L 2133.8934,1355.813   L 2098.8482,1357.388   L 2063.8031,1359.1206   L 2028.8368,1361.0894   L 1993.8704,1363.2158   L 1958.8253,1365.4996   L 1923.8589,1368.0197   L 1888.9713,1370.6973   L 1854.0049,1373.6112   L 1819.0386,1376.6825   L 1784.1509,1379.9114   L 1749.2633,1383.3765   L 1714.3757,1386.9992   L 1679.5669,1390.7793   L 1644.758,1394.7957   L 1609.9491,1398.9696   L 1575.1403,1403.3011   L 1540.3314,1407.8687   L 1505.6013,1412.5939   L 1470.95,1417.4766   L 1436.2199,1422.5956   L 1401.5685,1427.872   L 1366.9171,1433.306   L 1332.3445,1438.9762   L 1297.7719,1444.8039   L 1263.1993,1450.7892   L 1228.7055,1457.0107   L 1194.2116,1463.3897   L 1159.7966,1469.9262   L 1125.3815,1476.6989   L 1091.0451,1483.6292   L 1056.7088,1490.717   L 1022.3724,1497.9623   L 988.11485,1505.4438   L 953.93601,1513.0829   L 919.75718,1520.9582   L 885.6571,1528.991   L 851.55701,1537.1813   L 817.45693,1545.5291   L 783.51436,1554.1132   L 749.49303,1562.8548   L 715.6292,1571.7539   L 681.76538,1580.8105   L 647.98031,1590.1034   L 614.19524,1599.5537   L 580.48893,1609.2404   L 546.78261,1619.0057   L 513.2338,1629.0074   L 479.60623,1639.1665   L 446.13618,1649.5619   L 412.66612,1660.0361   L 379.27482,1670.7465   L 345.96226,1681.6144   L 312.72847,1692.7186   L 279.49467,1703.9016   L 246.33962,1715.3208   L 213.26333,1726.8975   L 180.18704,1738.6317   L 147.1895,1750.6021  " id="path844"/>
  <path style="fill:none;stroke:#000000;stroke-width:3.77952756;stroke-linecap:round;stroke-linejoin:round;stroke-miterlimit:4;stroke-dasharray:none;stroke-opacity:1" d="  M 147.1895,681.76538   L 206.64807,688.69565   L 266.02789,695.38966   L 325.48646,702.00492   L 384.94504,708.38392   L 444.40361,714.52666   L 503.86218,720.59065   L 563.39951,726.41838   L 622.93683,732.00984   L 682.47416,737.52256   L 742.09024,742.79902   L 801.62756,747.83921   L 861.24364,752.7219   L 920.85972,757.44709   L 980.4758,762.01477   L 1040.0919,766.34619   L 1099.7867,770.5201   L 1159.4028,774.53651   L 1219.0976,778.31665   L 1278.7925,781.93929   L 1338.4873,785.32568   L 1398.1821,788.55455   L 1457.8769,791.62592   L 1517.6505,794.46103   L 1577.3454,797.21739   L 1637.1189,799.65874   L 1696.8925,802.02133   L 1756.5874,804.14766   L 1816.361,806.03774   L 1876.1345,807.84906   L 1935.9081,809.42412   L 1995.6817,810.76292   L 2055.534,812.02297   L 2115.3076,813.04676   L 2175.0812,813.83429   L 2234.8548,814.46432   L 2294.6284,814.93683   L 2354.4807,815.25185   L 2414.2543,815.3306  " id="path846"/>
  <path style="fill:none;stroke:#000000;stroke-width:7.55905512;stroke-linecap:round;stroke-linejoin:round;stroke-miterlimit:4;stroke-dasharray:none;stroke-opacity:1" d="  M 147.1895,414.63495   L 188.45611,424.40033   L 229.72272,434.0082   L 271.06809,443.37982   L 312.41345,452.59393   L 353.83757,461.65053   L 395.26169,470.54963   L 436.68581,479.21247   L 478.18868,487.7178   L 519.7703,496.06563   L 561.35193,504.17719   L 602.93355,512.13126   L 644.59393,519.92781   L 686.33306,527.48811   L 727.99344,534.96965   L 769.73257,542.13618   L 811.55045,549.22395   L 853.36833,556.07547   L 895.18622,562.76948   L 937.08285,569.30599   L 978.97949,575.60623   L 1020.8761,581.74897   L 1062.8515,587.73421   L 1104.8269,593.48318   L 1146.8023,599.1534   L 1188.7777,604.50861   L 1230.8318,609.78507   L 1272.886,614.82527   L 1315.0189,619.70796   L 1357.1518,624.35439   L 1399.2847,628.84331   L 1441.4176,633.17473   L 1483.5505,637.34865   L 1525.7621,641.2863   L 1567.9737,645.06645   L 1610.1854,648.61034   L 1652.397,652.07547   L 1694.6087,655.22559   L 1736.8991,658.29696   L 1779.1895,661.13208   L 1821.4799,663.80968   L 1863.7703,666.32978   L 1906.0607,668.61362   L 1948.3511,670.73995   L 1990.7203,672.63002   L 2033.0107,674.36259   L 2075.3798,675.93765   L 2117.749,677.35521   L 2160.0394,678.53651   L 2202.4085,679.5603   L 2244.7777,680.34783   L 2287.1468,680.97785   L 2329.516,681.45037   L 2371.8852,681.76538   L 2414.2543,681.84413  " id="path848"/>
  <text xml:space="preserve" style="font-size:703.562500px;font-style:normal;font-variant:normal;font-weight:400;font-stretch:Normal;line-height:125.000000%;letter-spacing:0px;word-spacing:0px;fill:#000000;fill-opacity:1;stroke:none;font-family:Perpetua;text-align:start;text-anchor:start;" transform="matrix(1.000000,-0.000000,0.000000,1.000000,412.036095,1073.168171)" x="0.000000" y="0.000000" id="text854"><tspan x="0.000000" y="0.000000" id="tspan852"><tspan dx="0.000000" dy="0.000000" style="fill:#000000;font-size:703.562500px;font-style:normal;font-variant:normal;font-weight:400;font-stretch:Normal;font-family:Perpetua;" id="tspan850">isovect</tspan></tspan></text>
  <path style="fill:none;stroke:#000000;stroke-width:15.11811024;stroke-linecap:round;stroke-linejoin:round;stroke-miterlimit:4;stroke-dasharray:none;stroke-opacity:1" d="  M 147.1895,147.42576   L 180.18704,159.39623   L 213.26333,171.13043   L 246.33962,182.70714   L 279.49467,194.12633   L 312.72847,205.30927   L 345.96226,216.41345   L 379.27482,227.28138   L 412.66612,237.9918   L 446.13618,248.46596   L 479.60623,258.86136   L 513.2338,269.02051   L 546.78261,279.02215   L 580.48893,288.78753   L 614.19524,298.47416   L 647.98031,307.92453   L 681.76538,317.21739   L 715.6292,326.274   L 749.49303,335.17309   L 783.51436,343.91468   L 817.45693,352.49877   L 851.55701,360.8466   L 885.6571,369.03692   L 919.75718,377.06973   L 953.93601,384.94504   L 988.11485,392.58409   L 1022.3724,400.06563   L 1056.7088,407.31091   L 1091.0451,414.39869   L 1125.3815,421.32896   L 1159.7966,428.10172   L 1194.2116,434.63823   L 1228.7055,441.01723   L 1263.1993,447.23872   L 1297.7719,453.22395   L 1332.3445,459.05168   L 1366.9171,464.7219   L 1401.5685,470.15587   L 1436.2199,475.43232   L 1470.95,480.55127   L 1505.6013,485.43396   L 1540.3314,490.15915   L 1575.1403,494.72683   L 1609.9491,499.05824   L 1644.758,503.23216   L 1679.5669,507.24856   L 1714.3757,511.02871   L 1749.2633,514.65135   L 1784.1509,518.11649   L 1819.0386,521.34537   L 1854.0049,524.41674   L 1888.9713,527.3306   L 1923.8589,530.0082   L 1958.8253,532.5283   L 1993.8704,534.81214   L 2028.8368,536.93847   L 2063.8031,538.9073   L 2098.8482,540.63987   L 2133.8934,542.21493   L 2168.9385,543.63249   L 2203.9048,544.89253   L 2238.95,545.83757   L 2273.9951,546.70386   L 2309.1189,547.33388   L 2344.1641,547.8064   L 2379.2092,548.12141   L 2414.2543,548.20016  " id="path856"/>
</svg>